<svg xmlns="http://www.w3.org/2000/svg" viewBox="0 0 12151.37 10415.46" width="35" height="30" fill="#fff"><path d="M5599.343 1203.499v7890.37q0 181.692-142.752 324.444-142.755 142.752-324.44 129.774-181.687-12.978-324.44-129.774l-2413.832-2413.83H499.151q-194.664 0-324.44-142.753-129.776-142.759-142.753-324.445V3760.082q0-194.665 142.753-324.438 142.753-129.774 324.44-142.752h1894.728L4807.71 879.061q129.776-129.774 324.44-129.774 194.665 0 324.44 129.774 129.776 129.773 142.753 324.438zm2777.205 3945.188q0 545.058-311.463 1025.226-311.462 480.175-817.588 674.84-64.887 38.926-181.686 38.926-181.686 0-324.44-129.773-142.753-129.774-129.776-337.416 0-155.73 77.866-259.555 77.865-103.818 220.619-181.686 142.754-77.861 246.574-155.73 103.821-77.861 207.642-272.525 103.82-194.665 77.865-402.307-25.955-207.642-77.865-415.284-51.91-207.643-207.642-259.548-155.731-51.912-246.574-168.715-90.843-116.796-220.62-168.708-129.775-51.905-77.865-259.547 0-194.665 129.776-337.416 129.776-142.76 324.44-129.781 116.799 0 181.686 38.934 506.126 194.664 817.588 674.832 311.463 480.175 311.463 1025.233zm1855.794 0q0 1103.095-622.924 2050.46-622.924 947.364-1622.199 1362.641-90.843 38.934-181.686 38.934-194.663 0-337.417-142.751-142.753-142.752-129.775-324.438 0-285.511 272.529-428.263 415.282-207.642 558.035-324.438 532.082-389.328 830.566-973.32 298.485-583.993 298.485-1258.825t-298.485-1258.824q-298.484-583.993-830.566-973.321-142.753-116.803-558.035-324.445-272.529-142.752-272.529-428.256 0-181.686 129.775-324.437 129.776-142.76 324.44-142.76 103.82 0 194.663 38.935 1012.252 428.262 1622.2 1362.649 609.945 934.386 622.923 2050.46zm1855.795 0q0 1661.13-921.408 3062.714-921.41 1401.576-2452.765 2050.452-90.842 38.934-181.686 38.934-194.664 0-324.44-142.752-129.775-142.752-142.753-324.437 0-259.555 285.507-428.263 51.91-25.956 155.732-77.861 103.82-51.913 168.708-77.869Q8999.47 9067.92 9272 8886.233q882.476-661.86 1388.601-1648.16 506.127-986.291 493.148-2089.386-12.977-1103.095-493.148-2089.394-480.17-986.291-1388.601-1648.152-272.53-194.664-596.97-363.372-51.909-38.935-168.707-77.869-116.8-38.934-155.732-77.861-285.507-168.708-285.507-428.263 0-194.664 142.753-324.438Q8350.592 9.565 8532.278-3.413q90.844 0 181.686 38.926 1531.355 661.862 2452.765 2050.46 921.408 1388.605 921.408 3062.714z"/></svg>