<svg xmlns="http://www.w3.org/2000/svg" viewBox="0 0 12151.37 10415.46" width="35" height="30" fill="#fff"><path d="M7629.475 1578.632v7890.37c0 121.128-47.584 229.276-142.752 324.444-95.17 95.168-203.316 138.426-324.44 129.774-121.125-8.652-229.271-51.91-324.44-129.774L4424.01 7379.616H2529.283c-129.776 0-237.922-47.585-324.44-142.753-86.517-95.172-134.102-203.32-142.753-324.445V4135.215c0-129.776 47.584-237.922 142.753-324.438 95.17-86.516 203.316-134.1 324.44-142.752H4424.01l2413.831-2413.831c86.518-86.516 194.664-129.774 324.44-129.774 129.777 0 237.923 43.258 324.44 129.774 86.517 86.516 134.102 194.662 142.753 324.438zM10406.68 5523.82c0 363.372-103.821 705.114-311.463 1025.226-207.641 320.117-480.17 545.063-817.588 674.84-43.258 25.95-103.82 38.926-181.686 38.926-121.124 0-229.27-43.258-324.44-129.773-95.169-86.516-138.427-198.988-129.776-337.416 0-103.82 25.955-190.338 77.866-259.555 51.91-69.212 125.45-129.774 220.619-181.686 95.17-51.908 177.36-103.818 246.574-155.73 69.214-51.907 138.428-142.75 207.642-272.525 69.213-129.777 95.168-263.879 77.865-402.307-17.303-138.428 9.252-302.274-61.591-426.134-69.868-122.154-137.725-205.957-215.779-277.178-92.971-82.074-169.462-118.43-246.574-168.715-97.179-61.59-168.006-98.839-242.318-144.297-98.723-113.261-81.37-172.234-77.866-259.547 0-129.776 56.82-238.18 143.338-333.347 86.517-95.173 194.664-138.433 324.44-129.781 77.866 0 138.428 12.978 181.686 38.934 337.417 129.776 609.947 354.72 817.588 674.832 207.642 320.117 311.463 661.861 311.463 1025.233z"/></svg>