<?xml version="1.0" encoding="UTF-8" standalone="no"?>
<svg
   xmlns:dc="http://purl.org/dc/elements/1.1/"
   xmlns:cc="http://creativecommons.org/ns#"
   xmlns:rdf="http://www.w3.org/1999/02/22-rdf-syntax-ns#"
   xmlns:svg="http://www.w3.org/2000/svg"
   xmlns="http://www.w3.org/2000/svg"
   xmlns:sodipodi="http://sodipodi.sourceforge.net/DTD/sodipodi-0.dtd"
   xmlns:inkscape="http://www.inkscape.org/namespaces/inkscape"
   version="1.1"
   x="0px"
   y="0px"
   viewBox="0 0 12151.37 10415.46"
   style="fill:#ffffff"
   xml:space="preserve"
   width="35"
   height="30"><path
     d="m 7629.475,1578.6317 v 7890.3695 c 0,121.1289 -47.5842,229.2773 -142.7525,324.4452 -95.1693,95.1679 -203.316,138.4258 -324.44,129.7737 -121.1241,-8.6521 -229.2708,-51.91 -324.4401,-129.7737 L 4424.0112,7379.6152 H 2529.2826 c -129.7757,0 -237.9221,-47.5839 -324.4393,-142.7518 -86.5178,-95.1727 -134.1022,-203.3211 -142.7533,-324.4452 V 4135.2147 c 0,-129.7761 47.5844,-237.9221 142.7533,-324.4378 95.1688,-86.5158 203.3152,-134.0997 324.4393,-142.7518 H 4424.0112 L 6837.8424,1254.1938 c 86.5173,-86.5158 194.664,-129.7737 324.4401,-129.7737 129.7761,0 237.9227,43.2579 324.44,129.7737 86.5168,86.5158 134.101,194.6618 142.7525,324.4379 z m 2777.205,3945.1885 c 0,363.3721 -103.821,705.1141 -311.463,1025.2259 -207.6413,320.1167 -480.1705,545.0631 -817.5878,674.8392 -43.2584,25.9513 -103.8204,38.927 -181.6861,38.927 -121.124,0 -229.2707,-43.2579 -324.44,-129.7737 -95.1688,-86.5158 -138.4274,-198.9878 -129.7759,-337.4159 0,-103.8199 25.9552,-190.3382 77.8657,-259.5547 51.9099,-69.2117 125.4496,-129.7737 220.6189,-181.6861 95.1693,-51.9075 177.3608,-103.8175 246.5744,-155.7299 69.2141,-51.9075 138.4279,-142.7493 207.6415,-272.5254 69.2135,-129.7761 95.1687,-263.8783 77.8657,-402.3064 -17.3037,-138.4282 9.2516,-302.2743 -61.5915,-426.134 -69.8675,-122.154 -137.7251,-205.9574 -215.7786,-277.1777 -92.9715,-82.0746 -169.4624,-118.43 -246.5744,-168.7153 -97.1789,-61.5895 -168.0061,-98.839 -242.3178,-144.2967 -98.7229,-113.2619 -81.3708,-172.2349 -77.8657,-259.5473 0,-129.7762 56.8204,-238.1797 143.3377,-333.3475 86.5173,-95.1727 194.6639,-138.4331 324.44,-129.781 77.8657,0 138.4277,12.9781 181.6861,38.9343 337.4173,129.7761 609.9465,354.72 817.5878,674.8319 207.642,320.1167 311.463,661.8611 311.463,1025.2333 z"
     id="path4562"
     inkscape:connector-curvature="0"
     style="stroke-width:12.97758961"
     sodipodi:nodetypes="cscsccsccsscccsccsccscccccscsccccccccs" /></svg>
