<?xml version="1.0" encoding="UTF-8" standalone="no"?>
<svg
   xmlns:dc="http://purl.org/dc/elements/1.1/"
   xmlns:cc="http://creativecommons.org/ns#"
   xmlns:rdf="http://www.w3.org/1999/02/22-rdf-syntax-ns#"
   xmlns:svg="http://www.w3.org/2000/svg"
   xmlns="http://www.w3.org/2000/svg"
   xmlns:sodipodi="http://sodipodi.sourceforge.net/DTD/sodipodi-0.dtd"
   xmlns:inkscape="http://www.inkscape.org/namespaces/inkscape"
   version="1.1"
   id="Capa_1"
   x="0px"
   y="0px"
   viewBox="0 0 12151.37 10415.46"
   style="fill:#ffffff"
   xml:space="preserve"
   width="35"
   height="30"><path
     d="m 5599.343,1203.4986 v 7890.3695 q 0,181.6934 -142.7525,324.4452 -142.754,142.7518 -324.44,129.7737 -181.6861,-12.9781 -324.4401,-129.7737 L 2393.8792,7004.4821 H 499.15052 q -194.66343,0 -324.4393,-142.7518 Q 44.934616,6718.9712 31.957986,6537.2851 V 3760.0816 q 0,-194.6642 142.753234,-324.4378 142.75323,-129.7737 324.4393,-142.7518 H 2393.8792 L 4807.7104,879.06069 q 129.7759,-129.77367 324.4401,-129.77367 194.6641,0 324.44,129.77367 129.7752,129.77371 142.7525,324.43791 z m 2777.2047,3945.1885 q 0,545.0582 -311.4627,1025.2259 -311.4619,480.175 -817.5878,674.8392 -64.8876,38.927 -181.6861,38.927 -181.686,0 -324.44,-129.7737 -142.7532,-129.7737 -129.7759,-337.4159 0,-155.7299 77.8657,-259.5547 77.8649,-103.8175 220.6189,-181.6861 142.754,-77.8613 246.5744,-155.7299 103.8211,-77.8612 207.6415,-272.5254 103.8202,-194.6642 77.8657,-402.3064 -25.9555,-207.6423 -77.8657,-415.2846 -51.9102,-207.6422 -207.6415,-259.5473 -155.7314,-51.9124 -246.5744,-168.7153 -90.843,-116.7956 -220.6189,-168.708 -129.7759,-51.9051 -77.8657,-259.5473 0,-194.6643 129.7759,-337.416 129.7759,-142.7591 324.44,-129.781 116.7985,0 181.6861,38.9343 506.1259,194.6641 817.5878,674.8319 311.4627,480.175 311.4627,1025.2333 z m 1855.7943,0 q 0,1103.0945 -622.9239,2050.4591 -622.9239,947.3646 -1622.1987,1362.6418 -90.8431,38.9343 -181.6861,38.9343 -194.6634,0 -337.4174,-142.7517 -142.753,-142.7518 -129.7749,-324.4379 0,-285.5109 272.5289,-428.2626 415.2823,-207.6423 558.0355,-324.4379 532.0816,-389.3282 830.5655,-973.3207 298.4853,-583.9926 298.4853,-1258.8244 0,-674.8319 -298.4853,-1258.8244 -298.4839,-583.9926 -830.5655,-973.321 -142.7532,-116.8029 -558.0355,-324.4451 -272.5289,-142.7518 -272.5289,-428.2553 0,-181.686 129.7749,-324.4378 129.7759,-142.7591 324.44,-142.7591 103.8204,0 194.6635,38.9343 1012.2515,428.2626 1622.1987,1362.6491 609.9459,934.3866 622.9239,2050.4593 z m 1855.795,0 q 0,1661.1308 -921.408,3062.7142 -921.41,1401.5762 -2452.7646,2050.4517 -90.8423,38.934 -181.6861,38.934 -194.6642,0 -324.44,-142.752 -129.7752,-142.752 -142.7533,-324.4372 0,-259.5546 285.5072,-428.2626 51.9103,-25.9562 155.7314,-77.8613 103.8204,-51.9124 168.708,-77.8686 324.4393,-181.686 596.9691,-363.3721 882.4763,-661.8611 1388.6013,-1648.16 506.127,-986.2916 493.148,-2089.3861 -12.977,-1103.0946 -493.148,-2089.3936 -480.17,-986.2915 -1388.6013,-1648.1526 -272.5298,-194.6642 -596.9691,-363.3722 -51.9095,-38.9343 -168.708,-77.86865 -116.7992,-38.93428 -155.7314,-77.86126 -285.5072,-168.70797 -285.5072,-428.26266 0,-194.66417 142.7533,-324.43784 142.7539,-129.7736687 324.44,-142.7517687 90.8438,0 181.6861,38.9269747 1531.3546,661.861124 2452.7646,2050.459204 921.408,1388.6054 921.408,3062.7144 z"
     id="path4562"
     inkscape:connector-curvature="0"
     style="stroke-width:12.97758961" /></svg>
